<svg xmlns="http://www.w3.org/2000/svg" width="88.006" height="88.016" viewBox="0 0 88.006 88.016">
  <path id="Path_1037" data-name="Path 1037" d="M50,6c-24.329-.5-43.509,20.427-44,44C5.5,74.33,26.434,93.509,50,94c24.33.5,43.509-20.427,44-44A44.62,44.62,0,0,0,50,6Zm0,81.711C29.124,88.146,12.712,70.228,12.292,50c-.433-20.88,17.485-37.293,37.713-37.713C70.885,11.854,87.3,29.772,87.717,50A38.213,38.213,0,0,1,50,87.713Zm7.228-44.554a9.612,9.612,0,0,1,13.223-.078c3.061,2.667-1.4,7.094-4.444,4.445a3.117,3.117,0,0,0-4.334.078C58.67,50.3,54.21,45.873,57.232,43.159Zm-27.531,0a9.612,9.612,0,0,1,13.223-.078c3.061,2.667-1.4,7.094-4.444,4.445a3.117,3.117,0,0,0-4.334.078C31.139,50.3,26.679,45.873,29.7,43.159ZM70.46,57.708a2.848,2.848,0,0,0-1.8-.8,3,3,0,0,0-.3-.032H31.923a3.16,3.16,0,0,0-3.143,3.143c.572,12.034,9.329,20.791,21.363,21.363,12.016.571,20.832-10.189,21.363-21.363A2.916,2.916,0,0,0,70.46,57.708ZM35.494,63.165h29.3C61.354,78.39,38.933,78.39,35.494,63.165Z" transform="translate(-5.997 -5.992)" fill="#38c393"/>
</svg>
