<svg xmlns="http://www.w3.org/2000/svg" width="88.676" height="88.684" viewBox="0 0 88.676 88.684">
  <g id="google">
    <path id="Path_1034" data-name="Path 1034" d="M36.061,43.7c4.849,0,4.849,7.52,0,7.52S31.211,43.7,36.061,43.7Zm27.887,7.52c4.849,0,4.849-7.52,0-7.52S59.1,51.219,63.948,51.219ZM94.338,50C93.845,73.75,74.52,94.842,50.005,94.333,26.254,93.84,5.162,74.515,5.671,50,6.164,26.25,25.489,5.158,50.005,5.667A44.96,44.96,0,0,1,94.338,50ZM88,50c-.423-20.382-16.961-38.437-38-38-20.382.423-38.437,16.961-38,38,.423,20.382,16.961,38.437,38,38A38.5,38.5,0,0,0,88,50ZM62.828,64.763c-7.78,6.779-17.992,6.609-25.648-.268-3.029-2.72-7.523,1.744-4.478,4.478,10.352,9.3,24.121,9.4,34.6.268C70.392,66.554,65.893,62.093,62.828,64.763Z" transform="translate(-5.662 -5.658)" fill="#4dca76"/></g>
</svg>
