<svg xmlns="http://www.w3.org/2000/svg" width="88.676" height="88.684" viewBox="0 0 88.676 88.684">
  <g id="Group_818" data-name="Group 818" transform="translate(3690.338 -17614)">
    <path id="Path_1026" data-name="Path 1026" d="M36.064,43.7c4.849,0,4.849,7.52,0,7.52S31.215,43.7,36.064,43.7Zm27.888,7.52c4.849,0,4.849-7.52,0-7.52S59.1,51.219,63.952,51.219ZM94.338,50C93.845,73.75,74.52,94.842,50.005,94.333,26.254,93.84,5.162,74.515,5.671,50,6.164,26.25,25.489,5.158,50.005,5.667A44.96,44.96,0,0,1,94.338,50ZM88,50c-.423-20.382-16.961-38.437-38-38-20.382.423-38.437,16.961-38,38,.423,20.382,16.961,38.437,38,38A38.5,38.5,0,0,0,88,50ZM32.7,70.863c-3.044,2.735,1.45,7.2,4.478,4.478,7.657-6.877,17.868-7.047,25.648-.268,3.064,2.67,7.563-1.791,4.478-4.478C56.823,61.461,43.054,61.565,32.7,70.863Z" transform="translate(-3696 17608.342)" fill="#f26979"/>
    <path id="Path_1027" data-name="Path 1027" d="M65.457,29.934c-1.781-3.641-7.2-.453-5.427,3.172a15.553,15.553,0,0,0,15.3,8.572c4-.384,4.035-6.673,0-6.285A9.524,9.524,0,0,1,65.457,29.934ZM40.334,33.106c1.774-3.626-3.646-6.813-5.427-3.172a9.524,9.524,0,0,1-9.876,5.459c-4.035-.387-4,5.9,0,6.285A15.55,15.55,0,0,0,40.334,33.106Z" transform="translate(-3696 17608.008)" fill="#f26979"/>
  </g>
</svg>
