<svg xmlns="http://www.w3.org/2000/svg" width="88.006" height="88.016" viewBox="0 0 88.006 88.016">
  <path id="Path_1036" data-name="Path 1036" d="M36.17,51.209c-4.813,0-4.813-7.463,0-7.463S40.982,51.209,36.17,51.209Zm27.677-7.463c-4.813,0-4.813,7.463,0,7.463S68.66,43.746,63.847,43.746ZM94,50c-.489,23.571-19.668,44.5-44,44-23.571-.489-44.5-19.668-44-44C6.495,26.429,25.675,5.5,50,6A44.62,44.62,0,0,1,94,50Zm-6.286,0C87.3,29.772,70.884,11.854,50,12.287,29.776,12.707,11.858,29.12,12.292,50c.42,20.228,16.833,38.146,37.713,37.713A38.213,38.213,0,0,0,87.717,50ZM38.04,69.605c-3.021,2.714,1.439,7.144,4.445,4.445a10.907,10.907,0,0,1,15.04-.173c3.041,2.65,7.506-1.777,4.445-4.444C54.727,63.122,45.195,63.178,38.04,69.605Z" transform="translate(-5.997 -5.992)" fill="#f77e75"/>
</svg>
