<svg xmlns="http://www.w3.org/2000/svg" width="88.506" height="88.516" viewBox="0 0 88.506 88.516">
  <path id="Path_1035" data-name="Path 1035" d="M36.087,51.216c-4.84,0-4.84-7.506,0-7.506S40.927,51.216,36.087,51.216Zm27.835,0c4.84,0,4.84-7.506,0-7.506S59.082,51.216,63.922,51.216ZM94.253,50C93.761,73.7,74.473,94.756,50,94.248,26.3,93.756,5.249,74.468,5.756,50,6.248,26.3,25.536,5.244,50.005,5.752A44.873,44.873,0,0,1,94.253,50Zm-6.322,0C87.509,29.657,71,11.637,50,12.073,29.662,12.495,11.642,29,12.078,50,12.5,70.343,29.006,88.363,50.005,87.927A38.428,38.428,0,0,0,87.931,50ZM64.664,64.012,36.193,69.855c-3.992.819-2.3,6.912,1.68,6.1l28.471-5.843C70.336,69.289,68.643,63.2,64.664,64.012Z" transform="translate(-5.747 -5.742)" fill="#acd360"/>
</svg>
