<svg xmlns="http://www.w3.org/2000/svg" id="new_event" width="14.25" height="15.545" viewBox="0 0 14.25 15.545">
    <defs>
        <style>
            .cls-1{fill:#fff}
        </style>
    </defs>
    <path id="Path_1004" d="M17.764 20H4.486a.5.5 0 0 0-.486.486v7.934a1.3 1.3 0 0 0 1.3 1.3h11.655a1.3 1.3 0 0 0 1.3-1.3v-7.934a.5.5 0 0 0-.491-.486zm-8.906 7.125a.306.306 0 0 1-.324.324h-1.3a.306.306 0 0 1-.324-.324v-1.3a.306.306 0 0 1 .324-.324h1.3a.306.306 0 0 1 .324.324zm0-3.239a.306.306 0 0 1-.324.324h-1.3a.306.306 0 0 1-.324-.324v-1.3a.306.306 0 0 1 .324-.324h1.3a.306.306 0 0 1 .324.324zm3.242 3.239a.306.306 0 0 1-.324.324h-1.3a.306.306 0 0 1-.324-.324v-1.3a.306.306 0 0 1 .324-.324h1.3a.306.306 0 0 1 .324.324zm0-3.239a.306.306 0 0 1-.324.324h-1.3a.306.306 0 0 1-.324-.324v-1.3a.306.306 0 0 1 .324-.324h1.3a.306.306 0 0 1 .324.324zm3.239 3.239a.306.306 0 0 1-.324.324h-1.3a.306.306 0 0 1-.324-.324v-1.3a.306.306 0 0 1 .324-.324h1.3a.306.306 0 0 1 .324.324zm0-3.239a.306.306 0 0 1-.324.324h-1.3a.306.306 0 0 1-.324-.324v-1.3a.306.306 0 0 1 .324-.324h1.3a.306.306 0 0 1 .324.324z" class="cls-1" data-name="Path 1004" transform="translate(-4 -14.17)"/>
    <path id="Path_1005" d="M16.955 3.619h-1.62v-.647A.974.974 0 0 0 14.364 2a.974.974 0 0 0-.972.972v.648H8.858v-.648A.974.974 0 0 0 7.886 2a.974.974 0 0 0-.972.972v.648H5.3A1.3 1.3 0 0 0 4 4.915v.81a.5.5 0 0 0 .486.486h13.278a.5.5 0 0 0 .486-.486v-.81a1.3 1.3 0 0 0-1.295-1.296z" class="cls-1" data-name="Path 1005" transform="translate(-4 -2)"/>
</svg>
