<svg xmlns="http://www.w3.org/2000/svg" width="14.725" height="14.749" viewBox="0 0 14.725 14.749">
    <path id="call" fill="#fff" d="M16.264 12.934l-1.871-1.5a1.2 1.2 0 0 0-1.473-.034l-1.6 1.166a.478.478 0 0 1-.644-.061l-2.388-2.148-2.147-2.393a.511.511 0 0 1-.061-.644l1.166-1.6a1.2 1.2 0 0 0-.031-1.472l-1.5-1.871A1.22 1.22 0 0 0 3.9 2.289l-1.534 1.6A1.372 1.372 0 0 0 2 4.836a12.648 12.648 0 0 0 3.65 8.19 12.648 12.648 0 0 0 8.19 3.65 1.181 1.181 0 0 0 .92-.368l1.6-1.6a1.164 1.164 0 0 0-.096-1.774z" transform="translate(-2 -1.931)"/>
</svg>
