<svg xmlns="http://www.w3.org/2000/svg" width="18.598" height="18.598" viewBox="0 0 18.598 18.598">
    <defs>
        <style>
            .cls-1{fill:#706e6b}
        </style>
    </defs>
    <g id="download" transform="translate(-2 -2)">
        <path id="Path_2378" d="M20.016 31h-1.162a.6.6 0 0 0-.581.581v3.875a.6.6 0 0 1-.581.581H4.906a.6.6 0 0 1-.581-.581v-3.875A.6.6 0 0 0 3.744 31H2.581a.6.6 0 0 0-.581.581v5.231a1.554 1.554 0 0 0 1.55 1.55h15.5a1.554 1.554 0 0 0 1.55-1.55v-5.231a.6.6 0 0 0-.584-.581z" class="cls-1" data-name="Path 2378" transform="translate(0 -17.764)"/>
        <path id="Path_2379" d="M16.455 15.793a.562.562 0 0 0 .814 0l5.231-5.23a.562.562 0 0 0 0-.814l-.814-.814a.562.562 0 0 0-.814 0l-2.17 2.17a.388.388 0 0 1-.659-.271V2.581A.7.7 0 0 0 17.424 2h-1.163a.6.6 0 0 0-.581.581V10.8a.388.388 0 0 1-.659.271L12.852 8.9a.562.562 0 0 0-.814 0l-.814.852a.562.562 0 0 0 0 .814z" class="cls-1" data-name="Path 2379" transform="translate(-5.544)"/>
    </g>
</svg>
