<svg xmlns="http://www.w3.org/2000/svg" id="email" width="14.852" height="11.438" viewBox="0 0 14.852 11.438">
    <defs>
        <style>
            .cls-1{fill:#fff}
        </style>
    </defs>
    <path id="Path_1002" d="M9.046 14.141a.448.448 0 0 0 .649 0l6.986-6.492a.4.4 0 0 0-.37-.649l-13.849.031c-.371 0-.68.34-.4.649z" class="cls-1" data-name="Path 1002" transform="translate(-1.953 -7)"/>
    <path id="Path_1003" d="M16.838 16.455a.373.373 0 0 0-.618-.278l-5.471 5.039a1.951 1.951 0 0 1-1.329.526 2.077 2.077 0 0 1-1.329-.495l-5.441-5.07a.366.366 0 0 0-.618.278C2 17.846 2 21.617 2 23.472a1.24 1.24 0 0 0 1.236 1.236H15.6a1.24 1.24 0 0 0 1.236-1.236z" class="cls-1" data-name="Path 1003" transform="translate(-1.985 -13.271)"/>
</svg>
