<svg xmlns="http://www.w3.org/2000/svg" width="33.265" height="27.027" viewBox="0 0 33.265 27.027">
    <defs>
        <style>
            .cls-1{fill:#fff}
        </style>
    </defs>
    <g id="feedback">
        <g id="Group_21" data-name="Group 21" transform="translate(14.657)">
            <path id="Path_6" d="M63.3 40.892a.664.664 0 0 1 .1-.624A10.924 10.924 0 0 0 53.373 24a11.826 11.826 0 0 0-7.173 2.443 14.147 14.147 0 0 1 11.331 13.67 12.9 12.9 0 0 1-1.091 5.3 10.57 10.57 0 0 0 2.96-1.246.669.669 0 0 1 .624-.052l3.326 1.2a.8.8 0 0 0 .988-.988z" class="cls-1" data-name="Path 6" transform="translate(-46.2 -24)"/>
        </g>
        <g id="Group_22" data-name="Group 22" transform="translate(0 5.198)">
            <path id="Path_7" d="M29.435 34A11.2 11.2 0 0 0 18 44.915a10.6 10.6 0 0 0 1.455 5.354.9.9 0 0 1 .1.624l-1.091 3.482a.773.773 0 0 0 .988.988l3.326-1.2a.846.846 0 0 1 .624.052 11.745 11.745 0 0 0 6.029 1.611 11.2 11.2 0 0 0 11.438-10.911A11.2 11.2 0 0 0 29.435 34zM23.2 46.994a2.079 2.079 0 1 1 2.079-2.079 2.085 2.085 0 0 1-2.079 2.079zm6.237 0a2.079 2.079 0 1 1 2.079-2.079 2.085 2.085 0 0 1-2.081 2.079zm6.237 0a2.079 2.079 0 1 1 2.079-2.079 2.085 2.085 0 0 1-2.081 2.079z" class="cls-1" data-name="Path 7" transform="translate(-18 -34)"/>
        </g>
    </g>
</svg>
