<svg xmlns="http://www.w3.org/2000/svg" id="custom15" width="14.226" height="14.25" viewBox="0 0 14.226 14.25">
    <defs>
        <style>
            .cls-1{fill:#fff}
        </style>
    </defs>
    <path id="Path_1000" d="M56.255 26.2c-.831-.356-.95-.665-.95-1a1.332 1.332 0 0 1 .522-.926 2.332 2.332 0 0 0 .76-1.781A2.313 2.313 0 0 0 54.26 20a2.25 2.25 0 0 0-2.28 1.948.226.226 0 0 0 .095.237 4.3 4.3 0 0 1 1.734 3.586 4.09 4.09 0 0 1-1.021 2.779.243.243 0 0 0 .1.38 14 14 0 0 1 1.354.665.858.858 0 0 0 .475.142h2.731a1.171 1.171 0 0 0 1.188-1.164v-.19c-.006-1.068-1.17-1.662-2.381-2.183z" class="cls-1" data-name="Path 1000" transform="translate(-44.404 -20)"/>
    <path id="Path_1001" d="M27.7 39.191c-1-.4-1.14-.784-1.14-1.188a1.622 1.622 0 0 1 .618-1.092 2.758 2.758 0 0 0 .9-2.09 2.76 2.76 0 1 0-5.51 0 2.678 2.678 0 0 0 .9 2.09A1.572 1.572 0 0 1 24.09 38c0 .4-.143.76-1.14 1.188-1.449.594-2.826 1.282-2.85 2.541v.214a1.4 1.4 0 0 0 1.425 1.378H29.1a1.4 1.4 0 0 0 1.425-1.378v-.214c.001-1.255-1.376-1.944-2.825-2.538z" class="cls-1" data-name="Path 1001" transform="translate(-20.1 -29.074)"/>
</svg>
