<svg xmlns="http://www.w3.org/2000/svg" id="new_group" width="18.75" height="13.692" viewBox="0 0 18.75 13.692">
    <defs>
        <style>
            .cls-1{fill:#fff}
        </style>
    </defs>
    <path id="Path_1006" d="M5.644 14.586a4.581 4.581 0 0 1-.759-2.6 4.764 4.764 0 0 1 1.77-3.866A2.252 2.252 0 0 0 4.632 7 2.548 2.548 0 0 0 2.14 9.782a2.483 2.483 0 0 0 .795 1.951 1.57 1.57 0 0 1 .542 1.012c0 .361-.145.723-1.048 1.12-1.3.578-2.493 1.373-2.529 2.565a1.345 1.345 0 0 0 1.3 1.409h1.193a.564.564 0 0 0 .47-.289 5.889 5.889 0 0 1 2.565-2.168.535.535 0 0 0 .216-.796z" class="cls-1" data-name="Path 1006" transform="translate(.1 -7)"/>
    <path id="Path_1007" d="M37.463 13.864c-.9-.4-1.048-.723-1.048-1.12a1.419 1.419 0 0 1 .542-1.012 2.535 2.535 0 0 0 .795-1.951A2.527 2.527 0 0 0 35.259 7 2.356 2.356 0 0 0 33.2 8.12a4.764 4.764 0 0 1 1.77 3.865 4.581 4.581 0 0 1-.759 2.6.553.553 0 0 0 .217.795 5.658 5.658 0 0 1 2.565 2.168.564.564 0 0 0 .47.289h1.192a1.3 1.3 0 0 0 1.264-1.409c.036-1.191-1.156-1.986-2.456-2.564z" class="cls-1" data-name="Path 1007" transform="translate(-21.17 -7)"/>
    <path id="Path_1008" d="M19.122 19.95c-.975-.434-1.156-.831-1.156-1.228a1.6 1.6 0 0 1 .614-1.12 2.913 2.913 0 0 0 .9-2.168 2.759 2.759 0 1 0-5.491 0 2.913 2.913 0 0 0 .9 2.168 1.755 1.755 0 0 1 .614 1.12c0 .434-.145.795-1.156 1.228-1.445.614-2.818 1.3-2.854 2.6a1.537 1.537 0 0 0 1.481 1.59H20.5a1.537 1.537 0 0 0 1.481-1.59c-.041-1.299-1.414-1.95-2.859-2.6z" class="cls-1" data-name="Path 1008" transform="translate(-7.309 -10.449)"/>
</svg>
