<svg xmlns="http://www.w3.org/2000/svg" id="home" width="27.449" height="27.392" viewBox="0 0 27.449 27.392">
    <path id="Path_997" fill="#fff" d="M46.786 34.131h-2.872V46.67c0 .365-.228.547-.593.547h-5.654a.54.54 0 0 1-.593-.547V37h-6.839v9.67c0 .365-.228.547-.593.547h-5.654a.54.54 0 0 1-.593-.547V34.131h-2.872a.452.452 0 0 1-.5-.365.5.5 0 0 1 .137-.638L33.29 20a.577.577 0 0 1 .821 0l13.131 13.128a.655.655 0 0 1 .137.638c-.046.228-.365.365-.593.365z" data-name="Path 997" transform="translate(-19.956 -19.825)"/>
</svg>
