<svg xmlns="http://www.w3.org/2000/svg" width="14.504" height="14.501" viewBox="0 0 14.504 14.501">
    <path id="map" fill="#fff" d="M16.142 4.274L11.79 2.1a.773.773 0 0 0-.635 0L7.137 4.123 3.088 2.1a.749.749 0 0 0-.755.03.7.7 0 0 0-.332.6v10.881a.7.7 0 0 0 .393.635l4.351 2.176a.773.773 0 0 0 .635 0l4.048-2.022 4.019 2.025a.609.609 0 0 0 .332.091.665.665 0 0 0 .393-.121.7.7 0 0 0 .332-.6V4.909a.678.678 0 0 0-.362-.635zm-1.148 1.39v5.741a.452.452 0 0 1-.6.453c-1.118-.423-.212-2.3-1.027-3.324-.755-.937-1.722.03-2.659-1.45-.876-1.42.3-2.448 1.39-2.992a.515.515 0 0 1 .423 0l2.236 1.118a.472.472 0 0 1 .236.454zm-6.074 8.4A.507.507 0 0 1 8.376 14a1.589 1.589 0 0 1-.544-1.118c0-.725-1.209-.483-1.209-1.934 0-1.178-1.39-1.481-2.568-1.36a.454.454 0 0 1-.514-.483V4.7a.449.449 0 0 1 .665-.423l2.6 1.3a.106.106 0 0 1 .06.03l.091.06c1.088.635.876 1.148.423 1.934-.514.876-.725 0-1.45-.242s-1.45.242-1.209.725.967 0 1.45.483.482 1.207 1.929.723 1.692-.242 2.176.242a1.526 1.526 0 0 1 0 2.176 5.022 5.022 0 0 0-.786 1.934.48.48 0 0 1-.242.3z" transform="translate(-2 -2.011)"/>
</svg>
