<svg xmlns="http://www.w3.org/2000/svg" width="33.36" height="27.105" viewBox="0 0 33.36 27.105">
    <defs>
        <style>
            .cls-1{fill:#fff}
        </style>
    </defs>
    <g id="custom55">
        <path id="Path_3" d="M31.042 43.765h6.776a1.046 1.046 0 0 0 1.042-1.042V27.085A2.162 2.162 0 0 0 36.776 25H31.2a1.18 1.18 0 0 0-1.2 1.2v16.522a1.046 1.046 0 0 0 1.042 1.043z" class="cls-1" data-name="Path 3" transform="translate(-23.745 -25)"/>
        <path id="Path_4" d="M48.232 31v16.68a2.091 2.091 0 0 1-2.085 2.085H23.212a2.091 2.091 0 0 1-2.085-2.085V31A3.137 3.137 0 0 0 18 34.127v15.638a3.137 3.137 0 0 0 3.127 3.127h9.9a1.046 1.046 0 0 1 1.042 1.042 1.046 1.046 0 0 0 1.042 1.042h3.127a1.046 1.046 0 0 0 1.042-1.042 1.046 1.046 0 0 1 1.042-1.042h9.9a3.137 3.137 0 0 0 3.127-3.127V34.127A3.137 3.137 0 0 0 48.232 31z" class="cls-1" data-name="Path 4" transform="translate(-18 -27.873)"/>
        <path id="Path_5" d="M54.042 43.765h6.62a1.18 1.18 0 0 0 1.2-1.2V26.042A1.046 1.046 0 0 0 60.819 25h-5.734A2.162 2.162 0 0 0 53 27.085v15.637a1.046 1.046 0 0 0 1.042 1.043z" class="cls-1" data-name="Path 5" transform="translate(-34.756 -25)"/>
    </g>
</svg>
