<svg xmlns="http://www.w3.org/2000/svg" width="33.265" height="21.729" viewBox="0 0 33.265 21.729">
    <defs>
        <style>
            .cls-1{fill:#fff}
        </style>
    </defs>
    <g id="preview">
        <path id="Path_8" d="M33.1 19.289a18.356 18.356 0 0 0-32.977 0 1.22 1.22 0 0 0 0 1.15 18.356 18.356 0 0 0 32.977 0 1.222 1.222 0 0 0 0-1.15zm-16.493 7.606a7.03 7.03 0 1 1 7.03-7.03 7.01 7.01 0 0 1-7.03 7.03z" class="cls-1" data-name="Path 8" transform="translate(.025 -9)"/>
        <path id="Path_9" d="M23.946 19a4.946 4.946 0 1 0 4.946 4.946A4.916 4.916 0 0 0 23.946 19z" class="cls-1" data-name="Path 9" transform="translate(-7.314 -13.082)"/>
    </g>
</svg>
