<svg xmlns="http://www.w3.org/2000/svg" width="33.265" height="33.265" viewBox="0 0 33.265 33.265">
    <path id="user" fill="#fff" d="M35.265 30.414v1.525a3.373 3.373 0 0 1-3.326 3.326H5.326A3.373 3.373 0 0 1 2 31.938v-1.524c0-4.019 4.712-6.514 9.148-8.455l.416-.208a1.111 1.111 0 0 1 1.04.069 10.753 10.753 0 0 0 5.96 1.8 11.156 11.156 0 0 0 5.96-1.8 1.111 1.111 0 0 1 1.04-.069l.416.208c4.572 1.941 9.285 4.366 9.285 8.455zM18.632 2c4.574 0 8.247 4.089 8.247 9.148S23.206 20.3 18.632 20.3s-8.247-4.089-8.247-9.148S14.058 2 18.632 2z" transform="translate(-2 -2)"/>
</svg>
