<svg xmlns="http://www.w3.org/2000/svg" width="33.261" height="33.319" viewBox="0 0 33.261 33.319">
    <defs>
        <style>
            .cls-1{fill:#fff}
        </style>
    </defs>
    <g id="custom91">
        <path id="Path_1" d="M52.1 27a7.387 7.387 0 0 1-4.054-3.165C47.326 22.666 47.27 20 45.493 20H27.834C26 20 26 22.666 25.279 23.832c-1.166 1.833-2.666 2.277-4.443 3.332-1.833 1.055-.111 5.5.278 7.053a30.5 30.5 0 0 0 10.107 15.938 25.647 25.647 0 0 0 4.665 3c1.5.777 4-1.388 5.109-2.221a27.479 27.479 0 0 0 7.164-7.608 34.294 34.294 0 0 0 3.721-8.219c.333-1.166.666-2.332.889-3.554.222-1 .722-2.555.389-3.554A1.587 1.587 0 0 0 52.1 27c-2.553-.78.779.219 0 0zm-2.443 3.887c-1.5 7.442-5.5 14.383-12.106 18.437l-.889.555-.889-.555c-8-4.887-11-12.717-12.106-18.437l-.222-1.166 1-.611a12.065 12.065 0 0 0 4.276-4.831l.444-1H44.16l.278.722a11.737 11.737 0 0 0 4.72 5.276l.722.389v.056z" class="cls-1" data-name="Path 1" transform="translate(-20.007 -20)"/>
        <path id="Path_2" d="M42.569 32c-1.346 0-4.623 0-5.266.532-1.112.9-1.755 2.232-2.926 3.136-1.229.957-.644 1.913-.234 3.189a23.7 23.7 0 0 0 3.457 6.378 17.806 17.806 0 0 0 2.633 2.817c.293.266 2.984 2.711 2.984 1.169V33.063c-.004-.585-.004-1.063-.648-1.063z" class="cls-1" data-name="Path 2" transform="translate(-26.221 -24.978)"/>
    </g>
</svg>
