<svg xmlns="http://www.w3.org/2000/svg" width="28.567" height="30.733" viewBox="0 0 28.567 30.733">
    <g id="settings">
        <path id="Path_998" fill="#fff" d="M36.4 30.843a4.5 4.5 0 1 0 4.5 4.5 4.474 4.474 0 0 0-4.5-4.5zm13.449 8.54l-2.352-1.994a11.92 11.92 0 0 0 0-4.4L49.845 31a2.189 2.189 0 0 0 .511-2.71l-1.022-1.79a2.1 2.1 0 0 0-1.841-1.023 1.633 1.633 0 0 0-.716.153l-2.966 1.07a11.43 11.43 0 0 0-3.784-2.2l-.511-3.017a2 2 0 0 0-2.1-1.585h-2.043a1.969 1.969 0 0 0-2.1 1.585l-.511 2.966a11.038 11.038 0 0 0-3.835 2.2l-3.017-1.074a3.583 3.583 0 0 0-.716-.153 2.148 2.148 0 0 0-1.841 1.023l-1.023 1.79a2.127 2.127 0 0 0 .511 2.71L25.2 32.94a10.67 10.67 0 0 0-.2 2.2 10.35 10.35 0 0 0 .2 2.2l-2.352 1.994a2.189 2.189 0 0 0-.511 2.71l1.023 1.79a2.1 2.1 0 0 0 1.84 1.02 1.633 1.633 0 0 0 .716-.153l2.966-1.074a11.43 11.43 0 0 0 3.784 2.2l.511 3.068a2.094 2.094 0 0 0 2.1 1.739h2.045a2.139 2.139 0 0 0 2.1-1.79l.511-3.068a11.281 11.281 0 0 0 3.989-2.352l2.752 1.076a4.077 4.077 0 0 0 .767.153 2.148 2.148 0 0 0 1.841-1.023l.972-1.687a1.877 1.877 0 0 0-.409-2.56zM36.4 42.4a7.057 7.057 0 1 1 7.057-7.057A7.038 7.038 0 0 1 36.4 42.4z" data-name="Path 998" transform="translate(-22.055 -19.9)"/>
    </g>
</svg>
