<svg xmlns="http://www.w3.org/2000/svg" width="32" height="32" viewBox="0 0 32 32">
  <g id="Group_913" data-name="Group 913" transform="translate(12890 -22626)">
    <g id="Group_76" data-name="Group 76" transform="translate(-13947 18547)">
      <circle id="Ellipse_11" data-name="Ellipse 11" cx="16" cy="16" r="16" transform="translate(1057 4079)" fill="#d86899"/>
      <g id="Group_27" data-name="Group 27" transform="translate(932 4302)">
        <path id="user" d="M20,17.375V18.2A1.825,1.825,0,0,1,18.2,20H3.8A1.825,1.825,0,0,1,2,18.2v-.825C2,15.2,4.55,13.85,6.95,12.8l.225-.113a.6.6,0,0,1,.562.038,5.819,5.819,0,0,0,3.225.975,6.037,6.037,0,0,0,3.225-.975.6.6,0,0,1,.563-.038l.225.113C17.45,13.85,20,15.162,20,17.375ZM11,2a4.716,4.716,0,0,1,4.463,4.95A4.716,4.716,0,0,1,11,11.9,4.716,4.716,0,0,1,6.538,6.95,4.716,4.716,0,0,1,11,2Z" transform="translate(130 -219)" fill="#fff"/>
      </g>
    </g>
  </g>
</svg>
